<?xml version="1.0" encoding="utf-8"?>
<!-- Generator: Adobe Illustrator 18.1.1, SVG Export Plug-In . SVG Version: 6.00 Build 0)  -->
<!DOCTYPE svg PUBLIC "-//W3C//DTD SVG 1.1//EN" "http://www.w3.org/Graphics/SVG/1.1/DTD/svg11.dtd">
<svg version="1.1" id="Layer_1" xmlns="http://www.w3.org/2000/svg" xmlns:xlink="http://www.w3.org/1999/xlink" x="0px" y="0px"
	 viewBox="0 0 425 113.2" enable-background="new 0 0 425 113.2" xml:space="preserve">
<g>
	<g>
        <path fill="#4f5c59" d="M134.8,22.7h7.1l5.3,16.1h0.2l5.2-16.1h7.1c0.6,5.8,1.2,18.2,1.4,27.2h-5.3c-0.1-6.5-0.4-13.2-0.7-19.6
			h-0.2l-5,15.4h-5.3l-5-15.4h-0.2c-0.3,6.4-0.6,13.2-0.7,19.6h-5.2C133.6,40.9,134.2,28.5,134.8,22.7z" />
        <path fill="#4f5c59" d="M166.3,22.7h5.3v27.2h-5.3V22.7z" />
        <path fill="#4f5c59" d="M177.6,22.7h7.2l9.8,19.5h0.2V22.7h5.2v27.2h-7.2L183,30.5h-0.2v19.5h-5.2V22.7z" />
        <path fill="#4f5c59" d="M206,22.7h5.3v27.2H206V22.7z" />
        <path fill="#4f5c59" d="M216,44.9c1.9,0.3,5,0.8,7.1,0.8c3.8,0,5.5-1.3,5.5-3.6c0-2.1-1.4-2.6-5.7-4.2c-3.8-1.4-7.4-2.9-7.4-7.7
			c0-4.8,3.6-8,10.4-8c2.2,0,4.7,0.3,7,0.8l-0.7,4.6c-1.7-0.3-4.5-0.8-6.6-0.8c-2.4,0-4.7,0.6-4.7,2.9c0,2.4,2.5,2.9,5.9,4.2
			c3.5,1.3,7.1,3.1,7.1,8.1s-3.6,8.3-11,8.3c-2.4,0-5.4-0.4-7.7-0.8L216,44.9z" />
        <path fill="#4f5c59" d="M244.6,27.3H237v-4.7h20.6v4.7h-7.6v22.6h-5.3V27.3z" />
        <path fill="#4f5c59" d="M260.9,23.1c2.1-0.3,5.9-0.8,8.7-0.8c6.1,0,10.5,2,10.5,8.5c0,4.4-2.1,6.8-5,7.9c1.6,3.3,4,7.5,6.2,11.2
			l0,0.1H275c-1.9-3.4-3.8-7.2-5.4-10.4c-1.3,0-2.4-0.1-3.3-0.2v10.7h-5.3V23.1z M269.4,35.3c3.4,0,5.3-0.9,5.3-4.2
			c0-3.3-1.9-4.2-5.2-4.2c-1,0-2.3,0.1-3.3,0.2v8.1C267.3,35.3,268.7,35.3,269.4,35.3z" />
        <path fill="#4f5c59" d="M292.3,39.7c-3.4-5.5-6.6-11-9.4-17h5.8c1.9,4.2,4,8.2,6.3,12.1h0.2c2.2-3.8,4.4-7.9,6.3-12.1h5.6
			c-2.8,6-5.9,11.6-9.3,17v10.2h-5.3V39.7z" />
        <path fill="#31ba8f" d="M144.4,64.6c7.9,0,11.6,4.7,11.6,14s-3.8,14-11.6,14c-7.9,0-11.6-4.7-11.6-14S136.5,64.6,144.4,64.6z
			 M144.4,89.9c5.6,0,8.5-3.3,8.5-11.3s-2.8-11.3-8.5-11.3c-5.6,0-8.5,3.3-8.5,11.3S138.8,89.9,144.4,89.9z" />
        <path fill="#31ba8f" d="M161.2,65h15.5v2.7h-12.4v9.6h10.5V80h-10.5v12.2h-3.1V65z" />
        <path fill="#31ba8f" d="M196,67.7h-8.3V65h19.7v2.7h-8.3v24.5H196V67.7z" />
        <path fill="#31ba8f" d="M211.5,65h15.5v2.7h-12.4v9.1h10.4v2.7h-10.4v9.9h12.4v2.7h-15.5V65z" />
        <path fill="#31ba8f" d="M230.5,78.6c0-7.8,2.5-14,11.8-14c2.3,0,4.7,0.4,6.6,0.8l-0.5,2.7c-1.7-0.3-4.2-0.7-6.2-0.7
			c-7.3,0-8.6,5.3-8.6,11.3c0,5.6,1.2,11.3,8.2,11.3c2.5,0,4.9-0.7,7.1-1.5l1,2.5c-2.5,1.2-5.5,1.8-8.2,1.8
			C233.1,92.6,230.5,86.5,230.5,78.6z" />
        <path fill="#31ba8f" d="M254.1,65h3.1v11.8h13.5V65h3.1v27.2h-3.1V79.5h-13.5v12.7h-3.1V65z" />
        <path fill="#31ba8f" d="M280.7,65h4.7l13.2,23.5h0.2V65h3.1v27.2h-4.7l-13.2-23.5h-0.2v23.5h-3.1V65z" />
        <path fill="#31ba8f" d="M318.5,64.6c7.9,0,11.6,4.7,11.6,14s-3.8,14-11.6,14c-7.9,0-11.6-4.7-11.6-14S310.6,64.6,318.5,64.6z
			 M318.5,89.9c5.6,0,8.5-3.3,8.5-11.3s-2.8-11.3-8.5-11.3c-5.6,0-8.5,3.3-8.5,11.3S312.9,89.9,318.5,89.9z" />
        <path fill="#31ba8f" d="M335.3,65h3.1v24.5h12.2v2.7h-15.4V65z" />
        <path fill="#31ba8f" d="M364.6,64.6c7.9,0,11.6,4.7,11.6,14s-3.8,14-11.6,14c-7.9,0-11.6-4.7-11.6-14S356.8,64.6,364.6,64.6z
			 M364.6,89.9c5.6,0,8.5-3.3,8.5-11.3s-2.8-11.3-8.5-11.3c-5.6,0-8.5,3.3-8.5,11.3S359,89.9,364.6,89.9z" />
        <path fill="#31ba8f" d="M379.9,78.5c0-7.9,2.7-13.9,12.3-13.9c2.4,0,4.9,0.4,7,0.8l-0.5,2.7c-1.8-0.4-4.4-0.8-6.6-0.8
			c-7.4,0-9,4.9-9,11.2c0,5.8,1.4,11.4,8.4,11.4c1.8,0,3.8-0.4,5.5-1V78.4h3.1v12.2c-2.5,1.3-5.8,2-8.8,2
			C382.6,92.6,379.9,86.3,379.9,78.5z" />
        <path fill="#31ba8f" d="M412.6,82.1c-3.6-5.5-6.5-10.7-9.2-17.1h3.4c2.2,5.3,4.6,9.8,7.4,14.3h0.2c2.7-4.5,5.1-9,7.4-14.3h3.3
			c-2.8,6.4-5.7,11.6-9.2,17.1v10.1h-3.1V82.1z" />
	</g>
	<g>
        <path fill="#4f5c59" d="M104.8,6.7l-11.9,6.9l0-13.6L52.5,23.4l0,75.9l13.4-7.7l0-14.6l12.1-7l0,43.2l0.9-0.5
			c14.5-8.4,26.2-28.6,26.1-45.3L104.8,6.7z" />
        <path fill="#31ba8f" d="M0.2,6.7l11.9,6.9l0-13.6l40.4,23.4l0,75.9l-13.4-7.7l0-14.6l-12.1-7l0,43.2l-0.9-0.5
			C11.7,104.2,0,84,0,67.3L0.2,6.7z" />
	</g>
</g>
</svg>
