<?xml version="1.0" encoding="utf-8"?>
<!-- Generator: Adobe Illustrator 18.1.1, SVG Export Plug-In . SVG Version: 6.00 Build 0)  -->
<svg version="1.1" id="Layer_1" xmlns="http://www.w3.org/2000/svg" xmlns:xlink="http://www.w3.org/1999/xlink" x="0px" y="0px"
	 viewBox="0 0 62.9 80" enable-background="new 0 0 62.9 80" xml:space="preserve">
<g>
	<path fill="#D72D16" d="M9.5,47.3c2-0.3,4.8,0.2,6.1-0.9c0-6,2.6-10.4,5.6-13.8C28.7,32,34.4,27.1,34,19.2
		c-0.4-7.7-9.9-15-18.1-17.7c-1.7-0.6-3.8-0.8-5.4-1.3c0.5,0.1,4.9,4.7,4.9,7.5c-8.9,7.8-14,21.2-14,36.7c1.5,1,3.2,1.8,5.5,2.4
		c1-2.9,2.4-6.3,6.6-5.3C11.2,42.4,10,44.8,9.5,47.3z"/>
	<path fill="#D72D16" d="M37.3,22c-1.6,12.5-16.4,15-20.2,25.1c5-8.1,18.7-10.9,22.7-20.3c4.3-10.2-2.1-18.6-10.7-20.7
		C33.9,9.7,38.2,15.1,37.3,22z"/>
	<path fill="#D72D16" d="M44.5,24.6C41.2,39.9,19.2,42,14.2,55.9c7.1-11.5,27-14.6,33.2-27.4c3.7-7.7,0.6-15.4-6.8-17.3
		C44.4,14.2,45.6,19.5,44.5,24.6z"/>
	<path fill="#D72D16" d="M48.8,38.5c1.6-1.5,3.2-3.3,4.3-5.1c3.2-5.4,2.6-12.8-1.8-15c3,6.1-1.9,13.4-5.5,17.2
		C34.4,47.5,12.9,51.5,9.3,71.2C16,53.9,36.4,49.8,48.8,38.5z"/>
	<path fill="#D72D16" d="M46.6,51c9.7-4.8,18.3-15.6,11.8-23.2c0.6,3.2-0.7,6.6-2.3,9.2c-5,8-17.9,13.8-26,18.8
		c-12.1,7.3-15.5,12-19.7,24C17.7,62.8,30.1,59.1,46.6,51z"/>
	<path fill="#D72D16" d="M62.4,41.6c-6.3,16.6-30.8,14.6-39.9,28c6.8-7.5,21.6-8.6,31.6-13.5C59.1,53.5,64.8,48.8,62.4,41.6z"/>
</g>
</svg>
