<?xml version="1.0" encoding="utf-8"?>
<!-- Generator: Adobe Illustrator 18.1.1, SVG Export Plug-In . SVG Version: 6.00 Build 0)  -->
<svg version="1.1" id="Layer_1" xmlns="http://www.w3.org/2000/svg" xmlns:xlink="http://www.w3.org/1999/xlink" x="0px" y="0px"
	 viewBox="0 -0.8 83.2 81.7" enable-background="new 0 -0.8 83.2 81.7" xml:space="preserve">
<path fill="#D72D16" d="M41.6,6c19.1,0,34.5,15.2,34.5,34S60.6,74,41.6,74S7.1,58.8,7.1,40S22.5,6,41.6,6L41.6,6z"/>
<polygon fill="#D72D16" points="56,56.9 62.8,56.9 62.3,58.7 60,58.7 58.7,64 56.5,64 57.8,58.7 55.6,58.7 56,56.9 "/>
<path fill="#D72D16" d="M47.4,61.7l2.2-0.1c-0.1,0.3,0,0.5,0.1,0.8c0.1,0.3,0.5,0.4,0.9,0.4c0.4,0,0.6,0,0.8-0.1
	c0.3-0.1,0.4-0.3,0.4-0.5c0-0.3,0-0.3-0.1-0.5c-0.1-0.1-0.5-0.3-1-0.4c-0.9-0.1-1.6-0.5-1.8-0.8c-0.4-0.4-0.4-0.8-0.3-1.3
	c0.1-0.4,0.3-0.7,0.6-1.1c0.3-0.3,0.6-0.5,1.2-0.8c0.5-0.1,1.2-0.3,1.8-0.3c0.9,0,1.6,0.1,1.9,0.5c0.4,0.3,0.5,0.8,0.5,1.6l-2.1,0.1
	c0-0.3-0.1-0.5-0.3-0.7c-0.1-0.1-0.4-0.1-0.6-0.1s-0.5,0-0.6,0.1s-0.3,0.3-0.3,0.4s0,0.1,0.1,0.3c0.1,0,0.4,0.1,0.6,0.3
	c0.9,0.1,1.6,0.4,1.9,0.7c0.4,0.1,0.6,0.4,0.8,0.8c0.1,0.4,0.1,0.7,0,1.1c-0.1,0.4-0.4,0.8-0.8,1.2c-0.4,0.4-0.8,0.7-1.3,0.8
	c-0.5,0.1-1.2,0.3-1.8,0.3c-1.3,0-2.1-0.3-2.3-0.7C47.4,63.1,47.3,62.4,47.4,61.7L47.4,61.7z"/>
<path fill="#D72D16" d="M41.5,60.5c-0.3,0.7-0.3,1.2,0,1.6c0.3,0.3,0.5,0.4,1,0.4c0.5,0,0.9-0.1,1.3-0.4c0.4-0.3,0.6-0.8,0.8-1.6
	c0.3-0.7,0.1-1.2-0.1-1.5c-0.3-0.3-0.5-0.4-1-0.4c-0.5,0-0.9,0.1-1.2,0.4C42,59.2,41.7,59.7,41.5,60.5L41.5,60.5z"/>
<path fill="#D72D16" d="M39.2,60.5c0.3-1.2,0.9-2.1,1.7-2.8c0.8-0.7,1.8-0.9,3-0.9s2.1,0.3,2.6,0.9c0.5,0.7,0.6,1.5,0.4,2.7
	c-0.3,0.8-0.5,1.5-0.9,2s-0.9,0.9-1.6,1.2c-0.6,0.3-1.3,0.4-2.1,0.4c-0.8,0-1.4-0.1-1.9-0.4c-0.5-0.3-0.8-0.7-1-1.2
	C39,62,39,61.3,39.2,60.5L39.2,60.5z"/>
<path fill="#D72D16" d="M32.9,60.5c-0.3,0.7-0.3,1.2,0,1.6c0.3,0.3,0.5,0.4,1,0.4c0.5,0,0.9-0.1,1.3-0.4c0.4-0.3,0.6-0.8,0.8-1.6
	c0.3-0.7,0.1-1.2-0.1-1.5c-0.3-0.3-0.5-0.4-1-0.4c-0.5,0-0.9,0.1-1.2,0.4C33.3,59.2,33,59.7,32.9,60.5L32.9,60.5z"/>
<path fill="#D72D16" d="M30.7,60.5c0.3-1.2,0.9-2.1,1.7-2.8c0.8-0.7,1.8-0.9,3-0.9s2.1,0.3,2.6,0.9c0.5,0.7,0.6,1.5,0.4,2.7
	c-0.3,0.8-0.5,1.5-0.9,2s-0.9,0.9-1.6,1.2c-0.6,0.3-1.3,0.4-2.1,0.4c-0.8,0-1.4-0.1-1.9-0.4c-0.5-0.3-0.8-0.7-1-1.2
	C30.4,62,30.4,61.3,30.7,60.5L30.7,60.5z"/>
<path fill="#D72D16" d="M24.6,62.5h1.2c0.4,0,0.6,0,0.9-0.1s0.4-0.3,0.4-0.5c0.1-0.1,0-0.4-0.1-0.5c-0.1-0.1-0.4-0.1-0.8-0.1H25
	L24.6,62.5L24.6,62.5z"/>
<path fill="#D72D16" d="M25.4,59.7h1c0.4,0,0.6,0,0.8-0.1c0.3-0.1,0.3-0.3,0.4-0.5c0.1-0.1,0-0.4-0.1-0.4c-0.1-0.1-0.4-0.1-0.6-0.1
	h-1L25.4,59.7L25.4,59.7z"/>
<path fill="#D72D16" d="M23.8,56.9H28c0.8,0,1.2,0.1,1.4,0.5c0.3,0.3,0.4,0.8,0.3,1.2c-0.1,0.4-0.4,0.8-0.6,1.1
	c-0.3,0.1-0.5,0.4-0.9,0.4c0.5,0.1,0.8,0.3,1,0.7c0.3,0.3,0.3,0.7,0.1,1.1c-0.1,0.4-0.3,0.7-0.5,0.9c-0.3,0.3-0.5,0.5-0.9,0.7
	c-0.3,0.1-0.5,0.1-0.9,0.3c-0.5,0-0.9,0.1-1,0.1H22L23.8,56.9L23.8,56.9z"/>
<path fill="#D72D16" d="M62.1,51.5c-0.3,0.7-0.3,1.2,0,1.6c0.3,0.3,0.5,0.4,1,0.4s0.9-0.1,1.3-0.4c0.4-0.3,0.6-0.8,0.8-1.6
	c0.3-0.7,0.1-1.2-0.1-1.5c-0.3-0.3-0.5-0.4-1-0.4c-0.5,0-0.9,0.1-1.2,0.4C62.6,50.3,62.3,50.8,62.1,51.5L62.1,51.5z"/>
<path fill="#D72D16" d="M59.9,51.5c0.3-1.2,0.9-2.1,1.7-2.8s1.8-0.9,3-0.9s2.1,0.3,2.6,0.9s0.6,1.5,0.4,2.7c-0.3,0.8-0.5,1.5-0.9,2
	c-0.4,0.5-0.9,0.9-1.6,1.2c-0.6,0.3-1.3,0.4-2.1,0.4s-1.6,0-1.9-0.3c-0.5-0.3-0.8-0.7-1-1.2C59.6,52.9,59.6,52.3,59.9,51.5
	L59.9,51.5z"/>
<path fill="#D72D16" d="M54,53.5h1.2c0.4,0,0.6,0,0.9-0.1s0.4-0.3,0.4-0.5s0-0.4-0.1-0.5c-0.1-0.1-0.4-0.1-0.8-0.1h-1.2L54,53.5
	L54,53.5z"/>
<path fill="#D72D16" d="M54.7,50.7h1c0.4,0,0.6,0,0.8-0.1c0.3-0.1,0.3-0.3,0.4-0.5c0.1-0.1,0-0.4-0.1-0.4c-0.1-0.3-0.3-0.3-0.6-0.3
	h-1L54.7,50.7L54.7,50.7z"/>
<path fill="#D72D16" d="M53.1,47.9h4.1c0.8,0,1.2,0.1,1.4,0.5c0.3,0.3,0.4,0.8,0.3,1.2s-0.4,0.8-0.6,1.1c-0.3,0.1-0.5,0.4-0.9,0.4
	c0.5,0.1,0.8,0.3,1,0.7c0.3,0.4,0.3,0.7,0.1,1.1c-0.1,0.4-0.3,0.7-0.5,0.9c-0.3,0.3-0.5,0.5-0.9,0.7c-0.3,0.1-0.5,0.1-0.9,0.3
	c-0.5,0-0.9,0.1-1,0.1h-3.9L53.1,47.9L53.1,47.9z"/>
<path fill="#D72D16" d="M46.9,50.8h0.9c0.1,0,0.4,0,0.6,0c0.1,0,0.3-0.1,0.4-0.1c0.1-0.1,0.3-0.3,0.3-0.4c0.1-0.3,0-0.4-0.1-0.5
	c-0.1-0.1-0.4-0.1-0.8-0.1h-1L46.9,50.8L46.9,50.8z"/>
<path fill="#D72D16" d="M43.5,54.9l1.8-7.2h3.8c0.6,0,1.2,0,1.6,0.1s0.6,0.3,0.8,0.7c0.1,0.3,0.1,0.7,0.1,1.2
	c-0.1,0.4-0.3,0.7-0.5,1.1c-0.3,0.3-0.5,0.5-0.9,0.7c-0.3,0.1-0.5,0.1-0.9,0.3c0.3,0,0.4,0.1,0.5,0.3c0.1,0,0.1,0.1,0.3,0.4
	c0.1,0.1,0.3,0.3,0.3,0.4l0.6,2.1h-2.6l-0.6-2.1c-0.1-0.3-0.3-0.4-0.3-0.5c-0.1-0.1-0.4-0.1-0.5-0.1h-0.3l-0.8,2.9L43.5,54.9
	L43.5,54.9z"/>
<path fill="#D72D16" d="M41.6,47.9h2.2l-1,4.3c-0.1,0.4-0.3,0.8-0.5,1.2c-0.3,0.4-0.5,0.7-0.9,0.9c-0.4,0.3-0.8,0.4-1,0.5
	c-0.5,0.1-1,0.3-1.7,0.3c-0.4,0-0.8,0-1.2,0s-0.8-0.1-1-0.3c-0.3-0.1-0.5-0.3-0.6-0.5c-0.3-0.3-0.3-0.5-0.3-0.8c0-0.4,0-0.8,0.1-1.2
	l1-4.3h2.2l-1,4.4c-0.1,0.4-0.1,0.7,0.1,0.9c0.1,0.1,0.5,0.3,0.9,0.3c0.4,0,0.8-0.1,1-0.3c0.3-0.1,0.5-0.5,0.5-0.9L41.6,47.9
	L41.6,47.9z"/>
<polygon fill="#D72D16" points="29,47.9 35.9,47.9 35.4,49.6 33,49.6 31.7,54.9 29.5,54.9 30.8,49.6 28.6,49.6 29,47.9 "/>
<path fill="#D72D16" d="M41.6,0c22.3,0,40.6,17.9,40.6,40S64,80,41.6,80S1,62.1,1,40S19.2,0,41.6,0L41.6,0z"/>
<path fill="#FFFFFF" d="M41.6,9.9c5.2,0,10.2,1.3,14.5,3.6l-0.6,1.1l-0.4-0.1c-0.6-0.3-1.4,0-1.7,0.5l-2.5,4.8
	c-3.1-1.3-6.4-2.3-10-2.5V9.9C41.2,9.9,41.3,9.9,41.6,9.9L41.6,9.9z"/>
<path fill="#FFFFFF" d="M57.3,14c5.7,3.3,10.2,8.4,12.8,14.5l-6.7,2.4c-2.1-3.6-5.1-6.8-8.7-9.2l2.5-4.9c0.4-0.5,0.1-1.3-0.5-1.6
	h-0.1L57.3,14L57.3,14z"/>
<path fill="#FFFFFF" d="M39.6,17.1c-0.1,0-0.3,0-0.4,0c-3.1,0-6,0.4-8.8,1.3L28,12.8c3.6-1.7,7.5-2.8,11.7-3.1V17.1L39.6,17.1z"/>
<path fill="#FFFFFF" d="M29.3,18.9c-2.1,0.8-4,1.9-5.8,3.1l-3.4-3.6c1.9-1.9,4.1-3.5,6.6-4.8L29.3,18.9L29.3,18.9z"/>
<path fill="#FFFFFF" d="M22.4,22.7c-1.3,0.9-2.5,2-3.5,3.2l-3.2-2.3c1-1.6,2.2-3.1,3.6-4.4L22.4,22.7L22.4,22.7z"/>
<path fill="#FFFFFF" d="M18,26.8c-1.3,1.5-2.3,3.2-3.4,4.9L12,30.8c0.8-2.1,1.7-4.3,2.9-6.1L18,26.8L18,26.8z"/>
<path fill="#FFFFFF" d="M14.1,32.9c-0.8,1.6-1.3,3.3-1.8,5.1l-1.6-0.1c0.1-1.9,0.5-3.9,1-5.7L14.1,32.9L14.1,32.9z"/>
<path fill="#FFFFFF" d="M12,39.5c-0.3,1.6-0.5,3.3-0.5,4.9c0,1.1,0.1,2.1,0.1,3.3c0.1,0.8,0,1.1-0.3,0.3c-0.1-0.4-0.3-0.8-0.3-1.2
	c-0.1-1.5-0.3-2.8-0.4-4c-0.1-0.8-0.1-1.6-0.1-2.5c0-0.3,0-0.7,0-1.1L12,39.5L12,39.5z"/>
<path fill="#FFFFFF" stroke="#FFFFFF" stroke-miterlimit="10" d="M45.5,39.3c0.3,0.7,0.3,1.5-0.1,2.3c-0.8,1.3-2.3,2-3.9,1.2
	c-1.4-0.7-1.9-2.4-1.3-3.7c0.4-0.8,1-1.2,1.8-1.5l-1.2,2.3c-0.3,0.4-0.1,1.1,0.5,1.3L43,42c0.5,0.3,1,0,1.3-0.4L45.5,39.3L45.5,39.3
	z"/>
<path fill="#FFFFFF" stroke="#FFFFFF" stroke-miterlimit="10" d="M54.7,14.9l1.7,0.8c0.3,0.1,0.4,0.4,0.3,0.7L43.9,41.3
	c-0.1,0.3-0.5,0.3-0.6,0.1l-1.7-0.8c-0.3-0.1-0.4-0.4-0.3-0.7L54,15.1C54.2,14.8,54.4,14.8,54.7,14.9L54.7,14.9z"/>
</svg>
