<?xml version="1.0" encoding="utf-8"?>
<!-- Generator: Adobe Illustrator 18.1.1, SVG Export Plug-In . SVG Version: 6.00 Build 0)  -->
<svg version="1.1" id="Layer_1" xmlns="http://www.w3.org/2000/svg" xmlns:xlink="http://www.w3.org/1999/xlink" x="0px" y="0px"
	 viewBox="-16.1 0 62.9 80" enable-background="new -16.1 0 62.9 80" xml:space="preserve">
<path fill="#D72D16" d="M-9.6,30.1h40c1.6,0,2.9,1.4,2.9,3.2v39.4c0,0.8-0.3,1.6-0.7,2.1h2.9c0.8,0,1.4,0.7,1.4,1.6V80h-53v-3.8
	c0-0.9,0.7-1.6,1.4-1.6h1.4h1.5h23.7v-0.8c0-0.5-0.2-0.8-0.7-0.8h-23.6c0-0.1-0.1-0.4-0.1-0.5V33.3C-12.5,31.5-11.2,30.1-9.6,30.1
	L-9.6,30.1z M46.8,21.3v-7.4v-0.4L46.6,13L41.5,0.4L38.2,2l5,12.3v7H46.8L46.8,21.3z M46.4,24.2v44l0,0c0,1.1-0.2,2.3-0.7,3.2
	c-0.5,0.9-1.4,1.6-2.5,1.6h-0.1h-4.4h-1.4v-1.6V37.6H35v-3.2h3.6H40V36v33.8h2.8c0.6-0.1,0.6-1.1,0.5-1.6l0,0v-44L46.4,24.2
	L46.4,24.2z M-8.5,3.4h37.8c0.7,0,1.3,0.7,1.3,1.6v16.7c0,0.9-0.6,1.6-1.3,1.6H-8.5c-0.7,0-1.3-0.7-1.3-1.6V5
	C-9.7,4.1-9.1,3.4-8.5,3.4L-8.5,3.4z M-9.9,0h40.8c1.4,0,2.5,1.4,2.5,3.2v20.4c0,1.8-1.2,3.2-2.5,3.2H-9.9c-1.4,0-2.5-1.4-2.5-3.2
	V3.2C-12.5,1.4-11.3,0-9.9,0L-9.9,0z M-7.6,38.8h7v2.1h-4.2v1.8h3.7v2.1h-3.6v4.1h-2.9V38.8L-7.6,38.8z M7,38.8h2.9v6
	c0,0.6-0.1,1.1-0.3,1.7c-0.2,0.5-0.5,1-0.8,1.4c-0.4,0.4-0.7,0.6-1.2,0.9c-0.6,0.2-1.2,0.4-2,0.4c-0.5,0-0.9,0-1.5-0.1
	c-0.5-0.1-1-0.2-1.3-0.4s-0.7-0.5-1-0.9S1.3,47,1.2,46.7C1,46.1,0.9,45.5,0.9,45v-6h3v6c0,0.6,0.1,1,0.4,1.3s0.7,0.5,1.2,0.5
	s0.8-0.1,1.2-0.4c0.3-0.3,0.4-0.7,0.4-1.3v-6.3H7z M11.7,38.8h7.6v2.1h-4.8v1.6h4.4v2.1h-4.4v2h4.9v2.3h-7.8L11.7,38.8L11.7,38.8z
	 M21.1,38.8h2.8v7.6h4.4v2.5H21L21.1,38.8L21.1,38.8z"/>
</svg>
