<?xml version="1.0" encoding="utf-8"?>
<!-- Generator: Adobe Illustrator 18.1.1, SVG Export Plug-In . SVG Version: 6.00 Build 0)  -->
<svg version="1.1" id="Layer_1" xmlns="http://www.w3.org/2000/svg" xmlns:xlink="http://www.w3.org/1999/xlink" x="0px" y="0px"
	 viewBox="0 0 100 80" enable-background="new 0 0 100 80" xml:space="preserve"
	 xmlns:sodipodi="../../../../sodipodi.sourceforge.net/DTD/sodipodi-0.html">
<g id="g5413" transform="translate(84.33199,-2992.3512)">
	<path id="path5387" fill="#D72D16" d="M0.5,3000.8c-3.5,0-6.4,2.6-6.4,5.8c0,3.2,2.8,5.8,6.4,5.8
		s6.4-2.6,6.4-5.8C6.9,3003.4,4,3000.8,0.5,3000.8z M-11.6,3013.6c-6.3,0-12.4,0-18.2,0c-3.8,0-3.8,4.8,0.1,4.8h21.5
		c0.4,0,0.8,0.3,0.8,0.7v49.7c0,1.8,1.6,3.3,3.6,3.3s3.6-1.5,3.6-3.3V3042c0-0.4,0.4-0.7,0.8-0.7s0.8,0.3,0.8,0.7
		c0,9.1,0,18.5,0,26.8c0,1.8,1.6,3.3,3.6,3.3s3.6-1.5,3.6-3.3c0-15.6,0-31.2,0-46.7c0-0.4,0.4-0.7,0.8-0.7c0.4,0,0.8,0.3,0.8,0.7
		c0,6.3,0,12.7,0,18.1c0,3.5,5.3,3.6,5.3,0.1v-18.7c0-3.9-2.8-7.9-7.7-7.9C1.2,3013.6-5.3,3013.6-11.6,3013.6z"/>
	<path id="path901-4" fill="#D72D16" d="M-72.3,2992.7c-3.4,0-6.4,0.1-9.1,2.4
		c-2.9,2.4-2.6,5.9-2.6,9.1v41.9c0,3.1,1.9,5.9,4.9,7.3c2.3,1.1,5.1,0.9,7.7,0.9h26.2c-5,4.6-10,9.1-15,13.7c-2.2,2,1.2,5.1,3.4,3.1
		c4.7-4.3,9.5-8.7,14.2-13v11.4c0,2.9,4.8,2.9,4.8,0v-11.4c4.7,4.3,9.5,8.7,14.2,13c2.2,2,5.6-1.1,3.4-3.1c-5-4.6-10-9.1-15-13.7
		h24.9c0-1.5,0-2.9,0-4.4H-75c-2.2,0-4.2-1.6-4.2-3.7v-1.8v-39.5c0-2.3-0.6-5.6,1.7-7.1c1.6-1.1,4.5-0.6,6.4-0.6h58
		c1.8,0,3.8-0.2,5.6,0.1c1.4,0.2,2.2,0.9,2.7,1.8c1.3-0.8,2.9-1.3,4.5-1.4c-1.4-2.9-4.2-4.9-8.1-4.9H-72.3L-72.3,2992.7z"/>
	<path id="path4508-8-6" sodipodi:nodetypes="cccccsccsccsc" fill="#D72D16" d="M-48.4,3046.1
		L-48.4,3046.1h0.2c0,0,0.1,0,0.1,0c6.7-0.4,13.2-3.6,17.4-8.4c0.1-0.1,0.2-0.4,0.2-0.6c0-0.2-0.2-0.4-0.3-0.5
		c-5.7-3.7-11.4-7.3-17.1-10.9c-0.2-0.1-0.6-0.2-0.8-0.1c-0.3,0.1-0.4,0.4-0.4,0.6c0,6.4,0,12.7,0,19.1c0,0.2,0.1,0.4,0.2,0.5
		C-48.9,3046.1-48.6,3046.1-48.4,3046.1L-48.4,3046.1z"/>
	<path id="path4510-2-1" sodipodi:nodetypes="cccccscccccc" fill="#D72D16" d="M-51.6,3046.1
		c0.4,0,0.8-0.3,0.8-0.7c0-6.9,0-13.7,0-20.5c0-0.4-0.3-0.7-0.7-0.7c-7.4-0.6-14.9-1.2-22.3-1.8c-0.2,0-0.4,0.1-0.6,0.2
		s-0.3,0.3-0.3,0.5c-0.3,8.5,5.2,16.9,13.6,20.7l0,0C-58.2,3045.1-55,3045.9-51.6,3046.1C-51.6,3046.1-51.6,3046.1-51.6,3046.1
		L-51.6,3046.1z"/>
	<path id="path4512-4-8" fill="#D72D16" d="M-35,3005.7c-0.1,0-0.1,0-0.2,0
		c-0.2,0-0.4,0.1-0.5,0.3c-4.3,5.6-8.5,11.1-12.8,16.7c-0.1,0.2-0.2,0.3-0.1,0.5c0,0.2,0.2,0.4,0.3,0.5c6.1,3.9,12.2,7.8,18.3,11.7
		c0.1,0.1,0.3,0.1,0.5,0.1c0.3,0,0.5-0.1,0.7-0.3l0-0.1l0,0l0,0l0,0c2.8-4.2,4-9.3,3.4-14.2c-2.7,0.1-5.6,0.4-7.9-1.1
		c-3.4-2.1-2.1-7.7,1.8-8.6c0.7-0.1,1.5-0.1,2.2-0.1c-0.1-0.2-0.3-0.4-0.4-0.5l0,0c-1.4-1.8-3-3.4-4.8-4.7
		C-34.7,3005.8-34.8,3005.7-35,3005.7L-35,3005.7z"/>
	<path id="path4514-5-9" sodipodi:nodetypes="cccsccccscccc" fill="#D72D16" d="M-50.8,3022.8
		c0.3,0,0.5-0.1,0.6-0.3c4.4-5.7,8.8-11.5,13.2-17.2c0.1-0.2,0.2-0.4,0.1-0.6c0-0.2-0.2-0.4-0.4-0.5c-8-4.6-18.9-4.3-26.6,0.6l0,0
		c-5.7,3.5-9.7,9.1-10.6,15.3c0,0.2,0,0.4,0.2,0.5s0.3,0.3,0.6,0.3C-66.2,3021.5-58.5,3022.1-50.8,3022.8
		C-50.8,3022.8-50.8,3022.8-50.8,3022.8L-50.8,3022.8z"/>
</g>
</svg>
