<?xml version="1.0" encoding="utf-8"?>
<!-- Generator: Adobe Illustrator 18.1.1, SVG Export Plug-In . SVG Version: 6.00 Build 0)  -->
<svg version="1.1" id="Layer_1" xmlns="http://www.w3.org/2000/svg" xmlns:xlink="http://www.w3.org/1999/xlink" x="0px" y="0px"
	 viewBox="0 0 100 80" enable-background="new 0 0 100 80" xml:space="preserve">
<g id="g7049" transform="translate(155.6242,-6299.3461)">
	<path id="path6256-9" fill="#D72D16" d="M-68.1,6319.2c-2.8,0-5.1,2.2-5.1,4.9
		c0,2.7,2.3,4.9,5.1,4.9s5.1-2.2,5.1-4.9S-65.2,6319.2-68.1,6319.2z M-77.8,6330c-5.1,0-10,0-14.6,0c-3.1,0-3,4.1,0.1,4.1H-75
		c0.3,0,0.6,0.2,0.6,0.6v41.8c0,1.5,1.3,2.7,2.9,2.7c1.6,0,2.9-1.2,2.9-2.7v-22.5c0-0.3,0.3-0.6,0.6-0.6s0.6,0.3,0.6,0.6
		c0,7.7,0,15.6,0,22.5c0,1.5,1.3,2.7,2.9,2.7c1.6,0,2.9-1.2,2.9-2.7c0-13.1,0-26.2,0-39.4c0-0.3,0.3-0.6,0.6-0.6
		c0.3,0,0.6,0.3,0.6,0.6v15.2c0,2.9,4.3,3,4.3,0.1v-15.7c0-3.2-2.3-6.7-6.2-6.7C-67.5,6330-72.7,6330-77.8,6330L-77.8,6330z"/>
	<path id="path6201-3" fill="#D72D16" d="M-150.8,6306.2h71.4c2.4,0,4.3,1.8,4.3,4.1v0.8
		c0,2.3-1.9,4.1-4.3,4.1h-71.4c-2.4,0-4.3-1.8-4.3-4.1v-0.8C-155.1,6308-153.2,6306.2-150.8,6306.2L-150.8,6306.2z"/>
	<path id="path6203-4" fill="#D72D16" d="M-81,6316.8l-3.6,0v11c1.2,0,2.4,0,3.6,0V6316.8z
		 M-149.2,6316.9v33c0,3.2,2.7,5.8,6.1,5.8h23.8c-3.6,3.4-7.2,6.9-10.8,10.3c-1.7,1.6,0.9,4,2.6,2.4c3.6-3.4,7.1-6.8,10.7-10.2v9
		c0,2.2,3.6,2.2,3.6,0v-9c3.6,3.4,7.1,6.8,10.7,10.2c1.7,1.6,4.2-0.9,2.6-2.4c-3.6-3.4-7.2-6.9-10.8-10.3h23.8
		c3.3,0,6.1-2.6,6.1-5.8v-13.7h-3.6v13.7c0,1.3-1.1,2.3-2.5,2.3h-56.1c-1.4,0-2.5-1-2.5-2.3v-33H-149.2z"/>
	<path id="path6205-4" fill="#D72D16" d="M-115.1,6299.6c-1.8,0-3.2,1.4-3.2,3.1v1.7h6.4v-1.7
		C-111.9,6300.9-113.3,6299.6-115.1,6299.6L-115.1,6299.6z"/>
	<path id="path4839" fill="#D72D16" d="M-130.1,6328c0,0-0.1,0-0.1,0c-0.9,0.2-1.8,0.4-2.6,0.7
		c-0.3,0.1-0.5,0.4-0.4,0.7l0.4,1.7c0.1,0.3,0,0.5-0.3,0.7c-0.5,0.3-1,0.7-1.5,1.1c-0.2,0.2-0.5,0.2-0.7,0.1c-0.5-0.3-1-0.6-1.6-0.9
		c-0.3-0.2-0.6-0.1-0.8,0.2c-0.3,0.4-0.5,0.7-0.8,1.1c-0.2,0.4-0.4,0.8-0.6,1.2c-0.1,0.3,0,0.6,0.3,0.8c0.5,0.3,1,0.6,1.6,0.9
		c0.3,0.1,0.4,0.4,0.3,0.7c-0.2,0.6-0.2,1.2-0.3,1.8c0,0.3-0.2,0.5-0.5,0.6l-1.7,0.5c-0.3,0.1-0.5,0.4-0.5,0.7
		c0.2,0.9,0.4,1.7,0.7,2.5c0.1,0.3,0.4,0.4,0.8,0.4l1.8-0.4c0.3-0.1,0.5,0,0.7,0.3c0.3,0.5,0.7,1,1.2,1.4c0.2,0.2,0.2,0.5,0.1,0.7
		c-0.3,0.5-0.6,1-0.9,1.5c-0.2,0.3-0.1,0.6,0.2,0.8c0.4,0.3,0.8,0.5,1.2,0.7c0.4,0.2,0.8,0.4,1.2,0.6c0.3,0.1,0.6,0,0.8-0.3
		c0.3-0.5,0.6-1,0.9-1.5c0.1-0.2,0.4-0.3,0.7-0.3c0.6,0.2,1.3,0.2,1.9,0.2c0.3,0,0.5,0.2,0.6,0.4l0.5,1.7c0.1,0.3,0.4,0.5,0.7,0.4
		c0.9-0.2,1.8-0.4,2.6-0.7c0.3-0.1,0.5-0.4,0.4-0.7l-0.4-1.7c-0.1-0.3,0-0.5,0.3-0.7c0.5-0.3,1-0.7,1.5-1.1c0.2-0.2,0.5-0.2,0.7-0.1
		c0.5,0.3,1,0.6,1.6,0.9c0.3,0.2,0.6,0.1,0.8-0.2c0.3-0.4,0.5-0.7,0.8-1.1c0.2-0.4,0.4-0.8,0.6-1.2c0.1-0.3,0-0.6-0.3-0.7
		c-0.5-0.3-1-0.6-1.6-0.9c-0.3-0.1-0.4-0.4-0.3-0.7c0.2-0.6,0.2-1.2,0.3-1.8c0-0.3,0.2-0.5,0.5-0.6l1.7-0.5c0.3-0.1,0.5-0.4,0.5-0.7
		c-0.2-0.9-0.4-1.7-0.7-2.5c-0.1-0.3-0.4-0.4-0.8-0.4l-1.8,0.4c-0.3,0.1-0.5,0-0.7-0.3c-0.3-0.5-0.7-1-1.2-1.4
		c-0.2-0.2-0.2-0.5-0.1-0.7c0.3-0.5,0.6-1,0.9-1.5c0.2-0.3,0.1-0.6-0.2-0.8c-0.4-0.3-0.8-0.5-1.2-0.7c-0.4-0.2-0.8-0.4-1.2-0.6
		c-0.3-0.1-0.6,0-0.8,0.3c-0.3,0.5-0.6,1-0.9,1.5c-0.1,0.2-0.4,0.3-0.7,0.3c-0.6-0.2-1.3-0.2-1.9-0.2c-0.3,0-0.5-0.2-0.6-0.4
		l-0.5-1.7C-129.6,6328.3-129.8,6328-130.1,6328L-130.1,6328z M-128.8,6333.4c1,0,2,0.2,3,0.7c2.7,1.5,3.7,4.8,2.1,7.5
		c-1.6,2.6-5.1,3.5-7.8,2c-2.7-1.5-3.7-4.8-2.1-7.5C-132.6,6334.4-130.7,6333.4-128.8,6333.4z"/>
	<path id="path4844" fill="#D72D16" d="M-110.1,6318.1c0,0-0.1,0-0.1,0c-0.9,0.2-1.8,0.4-2.6,0.7
		c-0.3,0.1-0.5,0.4-0.4,0.7l0.4,1.7c0.1,0.3,0,0.5-0.3,0.7c-0.5,0.3-1,0.7-1.5,1.1c-0.2,0.2-0.5,0.2-0.7,0.1c-0.5-0.3-1-0.6-1.6-0.9
		c-0.3-0.2-0.6-0.1-0.8,0.2c-0.3,0.4-0.5,0.7-0.8,1.1c-0.2,0.4-0.4,0.8-0.6,1.2c-0.1,0.3,0,0.6,0.3,0.7c0.5,0.3,1,0.6,1.6,0.9
		c0.3,0.1,0.4,0.4,0.3,0.7c-0.2,0.6-0.2,1.2-0.3,1.8c0,0.3-0.2,0.5-0.5,0.6l-1.7,0.5c-0.3,0.1-0.5,0.4-0.5,0.7
		c0.2,0.9,0.4,1.7,0.7,2.5c0.1,0.3,0.4,0.4,0.8,0.4l1.8-0.4c0.3-0.1,0.5,0,0.7,0.3c0.3,0.5,0.7,1,1.2,1.4c0.2,0.2,0.2,0.5,0.1,0.7
		c-0.3,0.5-0.6,1-0.9,1.5c-0.2,0.3-0.1,0.6,0.2,0.8c0.4,0.3,0.8,0.5,1.2,0.7c0.4,0.2,0.8,0.4,1.2,0.6c0.3,0.1,0.6,0,0.8-0.3
		c0.3-0.5,0.6-1,0.9-1.5c0.1-0.2,0.4-0.3,0.7-0.3c0.6,0.2,1.3,0.2,1.9,0.2c0.3,0,0.5,0.2,0.6,0.4l0.5,1.7c0.1,0.3,0.4,0.5,0.7,0.4
		c0.9-0.2,1.8-0.4,2.6-0.7c0.3-0.1,0.5-0.4,0.4-0.7l-0.4-1.7c-0.1-0.3,0-0.5,0.3-0.7c0.5-0.3,1-0.7,1.5-1.1c0.2-0.2,0.5-0.2,0.7-0.1
		c0.5,0.3,1,0.6,1.6,0.9c0.3,0.2,0.6,0.1,0.8-0.2c0.3-0.4,0.5-0.7,0.8-1.1c0.2-0.4,0.4-0.8,0.6-1.2c0.1-0.3,0-0.6-0.3-0.8
		c-0.5-0.3-1-0.6-1.6-0.9c-0.3-0.1-0.4-0.4-0.3-0.7c0.2-0.6,0.2-1.2,0.3-1.8c0-0.3,0.2-0.5,0.5-0.6l1.7-0.5c0.3-0.1,0.5-0.4,0.5-0.7
		c-0.2-0.9-0.4-1.7-0.7-2.5c-0.1-0.3-0.4-0.4-0.8-0.4l-1.8,0.4c-0.3,0.1-0.5,0-0.7-0.3c-0.3-0.5-0.7-1-1.2-1.4
		c-0.2-0.2-0.2-0.5-0.1-0.7c0.3-0.5,0.6-1,0.9-1.5c0.2-0.3,0.1-0.6-0.2-0.8c-0.4-0.3-0.8-0.5-1.2-0.7c-0.4-0.2-0.8-0.4-1.2-0.6
		c-0.3-0.1-0.6,0-0.8,0.3c-0.3,0.5-0.6,1-0.9,1.5c-0.1,0.2-0.4,0.3-0.7,0.3c-0.6-0.2-1.3-0.2-1.9-0.2c-0.3,0-0.5-0.2-0.6-0.4
		l-0.5-1.7C-109.5,6318.3-109.8,6318.1-110.1,6318.1L-110.1,6318.1z M-108.7,6323.4c1,0,2,0.2,3,0.7c2.7,1.5,3.7,4.8,2.1,7.5
		c-1.6,2.6-5.1,3.5-7.8,2c-2.7-1.5-3.7-4.8-2.1-7.5C-112.5,6324.5-110.7,6323.5-108.7,6323.4z"/>
</g>
</svg>
