<?xml version="1.0" encoding="utf-8"?>
<!-- Generator: Adobe Illustrator 18.1.1, SVG Export Plug-In . SVG Version: 6.00 Build 0)  -->
<svg version="1.1" id="Layer_1" xmlns="http://www.w3.org/2000/svg" xmlns:xlink="http://www.w3.org/1999/xlink" x="0px" y="0px"
	 viewBox="0 0 100 80" enable-background="new 0 0 100 80" xml:space="preserve">
<path id="path5929" fill="#D72D16" d="M59.3,0.8c-8.1,0-15.2,3.8-19.2,9.7c-1.7-0.7-3.7-1-5.7-1
	c-8.3,0-15,6.2-15,13.8c0,0.7,0.1,1.3,0.2,2C11.2,27.6,5.1,35.5,5.1,44.7c0,6.2,2.8,11.8,7.1,15.5c8.5-7.2,17.4-14,26.1-21
	c-0.3-0.9-0.5-1.9-0.6-2.9C36.6,27.5,45,19,54.7,19c1.4,0,2.8,0.1,4.3,0.4c1.9,0.4,4.3,1.5,3.9,3.4c-0.3,1.5-1.8,2.7-3,3.7l-5.7,5.2
	l4.3,4l6.7-6c1.5-1.3,3.9-2.8,5.4-1.3c2.7,3,2.3,7.5,1.2,11.1c-2.3,8.1-12.5,13.2-21.2,10.8c-4.7,4.8-9.4,9.7-14,14.5h36.3
	c13.1,0,23.5-10.8,23.5-24c0-9.9-5.8-18.4-14.3-22.1C80.4,8.6,70.9,0.8,59.3,0.8z"/>
<path id="path5931" fill="#D72D16" d="M60.1,22.2c0,0-0.1-0.1-0.2-0.1c-5.2-1.7-11.2-0.6-15.4,3.2
	c-4.3,3.9-5.4,9.7-3.3,14.5c-9.9,7.9-23,18.4-32.7,26.5c-3.5,2.9-3.4,8.1,0,11.2c3.4,3.1,9.1,3.3,12.3,0l28.8-30
	c5.3,1.9,11.6,0.9,15.9-3c4.2-3.8,5.3-9.4,3.5-14.1c0-0.1,0-0.1-0.1-0.1c-0.2-0.2-0.5-0.2-0.7,0l-8.6,7.9c-0.6,0.5-1.5,0.5-2.1,0
	l-5.9-5.4c-0.6-0.5-0.6-1.4,0-1.9l8.6-7.9C60.3,22.7,60.3,22.4,60.1,22.2L60.1,22.2z M18.7,68.2c0.2,0.2,0.3,0.3,0.3,0.6v6.3
	c0,0.4-0.4,0.8-0.9,0.8h-6.8c-0.5,0-0.9-0.4-0.9-0.8v-6.3c0-0.4,0.4-0.8,0.9-0.8h6.8C18.3,68,18.6,68.1,18.7,68.2L18.7,68.2z"/>
</svg>
