<svg xmlns="http://www.w3.org/2000/svg" xmlns:xlink="http://www.w3.org/1999/xlink" version="1.1" id="Layer_1" x="0px" y="0px" viewBox="0 0 100 80" enable-background="new 0 0 100 80" xml:space="preserve"  width="100%" height="100%"><defs id="svgEditorDefs"><path id="svgEditorClosePathDefs" stroke="black" fill="khaki" style="stroke-width: 1px; vector-effect: non-scaling-stroke;"/></defs><rect id="svgEditorBackground" x="0" y="0" width="100" height="80" style="fill: none; stroke: none;"/>
<g id="g7049" transform="translate(155.6242,-6299.3461)">
	<path id="path6256-9" fill="#D72D16" d="M-143.06688741721894,6317.522295805742c-2.799999999999983,0,-5.099999999999994,2.199999999999818,-5.099999999999994,4.899999999999636c0,2.699999999999818,2.3000000000000114,4.899999999999636,5.099999999999994,4.899999999999636s5.099999999999994,-2.199999999999818,5.099999999999994,-4.899999999999636s-2.200000000000017,-4.899999999999636,-5.099999999999994,-4.899999999999636ZM-147.91037527593858,6328.322295805742c-8.190507726269317,0.7947019867560813,-7.262693156732865,1.854304635761764,-7.094481236203052,22.86975717439236c0.07880794701983973,3.0022075055194364,4.593818984547454,2.863796909492521,4.515011037527557,0.03818984547615401h0.08145695364234484c0.7415011037527961,-18.807947019868152,-0.6362030905077064,-15.340838852098386,1.1298013245033474,-16.177041942604774v39.76909492273717c-0.08830022075056834,1.5,1.211699779249443,2.699999999999818,2.8116997792494374,2.699999999999818c1.5999999999999943,0,2.9000000000000057,-1.199999999999818,2.9000000000000057,-2.699999999999818v-22.5c0,-0.3000000000001819,0.29999999999999727,-0.6000000000003638,0.5999999999999944,-0.6000000000003638s0.5999999999999944,0.3000000000001819,0.5999999999999944,0.6000000000003638c0,7.699999999999818,0,15.600000000000364,0,22.5c0,1.5,1.2999999999999974,2.699999999999818,2.9000000000000057,2.699999999999818c1.5999999999999943,0,2.9000000000000057,-1.199999999999818,2.9000000000000057,-2.699999999999818c0,-13.100000000000364,0,-26.199999999999818,0,-39.399999999999636c0,-0.3000000000001819,0.29999999999999727,-0.6000000000003638,0.6000000000000086,-0.6000000000003638c0.29999999999999727,0,0.6000000000000086,0.3000000000001819,0.6000000000000086,0.6000000000003638v15.199999999999818c0,2.899999999999636,4.299999999999997,3,4.299999999999997,0.1000000000003638v-15.699999999999818c0,-3.199999999999818,-2.299999999999997,-6.699999999999818,-6.200000000000003,-6.699999999999818c-5.199999999999989,-1.8189894035458565e-12,-10.400000000000006,-1.8189894035458565e-12,-15.5,-1.8189894035458565e-12l4.768211920529808,0Z"/>
	<path id="path6201-3" fill="#D72D16" d="M-132.15849794268016,6306.818101545252h71.4c2.4000000000000057,0,4.299999999999997,1.800000000000182,4.299999999999997,4.100000000000364v0.8000000000001819c0,2.300000000000182,-1.9000000000000057,4.100000000000364,-4.299999999999997,4.100000000000364h-71.4c-2.4000000000000057,0,-4.300000000000011,-1.800000000000182,-4.300000000000011,-4.100000000000364v-0.8000000000001819c2.842170943040401e-14,-2.300000000000182,1.900000000000034,-4.100000000000364,4.300000000000011,-4.100000000000364l0,0Z"/>
	<path id="path6203-4" fill="#D72D16" d="M-62.623398604931694,6317.594701986757l-3.246799116997792,-0.08830022075017041v0.4039735099349855c1.2000000000000028,10.596026490065015,-0.07240618101545238,21.19205298013094,3.6883002207505484,20.309050772625596v-20.713024282560582ZM-130.47019772192948,6317.6064017660065v33c0,3.199999999999818,2.6999999999999886,5.800000000000182,6.099999999999994,5.800000000000182h23.799999999999997c-3.5999999999999943,3.399999999999636,-7.200000000000003,6.899999999999636,-10.799999999999997,10.300000000000182c-1.6999999999999886,1.6000000000003638,0.9000000000000057,4,2.5999999999999943,2.399999999999636c3.5999999999999943,-3.399999999999636,7.099999999999994,-6.800000000000182,10.700000000000003,-10.199999999999818v9c0,2.199999999999818,3.5999999999999943,2.199999999999818,3.5999999999999943,0v-9c3.5999999999999943,3.399999999999636,7.099999999999994,6.800000000000182,10.700000000000003,10.199999999999818c1.7000000000000028,1.6000000000003638,4.200000000000003,-0.8999999999996362,2.5999999999999943,-2.399999999999636c-3.5999999999999943,-3.399999999999636,-7.200000000000003,-6.899999999999636,-10.799999999999997,-10.300000000000182h23.799999999999997c3.299999999999997,0,6.099999999999994,-2.600000000000364,6.099999999999994,-5.800000000000182v-32.86114790287047h-3.6883002207505484v32.86114790287047c0.0883002207505541,1.300000000000182,-1.0116997792494402,2.300000000000182,-2.411699779249446,2.300000000000182h-56.099999999999994c-1.4000000000000057,0,-2.5,-1,-2.5,-2.300000000000182v-33h-3.6999999999999886Z"/>
	<path id="path6205-4" fill="#D72D16" d="M-96.55695364238375,6300.483002207504c-1.7999999999999972,0,-3.200000000000003,1.3999999999996364,-3.200000000000003,3.100000000000364v1.699999999999818h6.400000000000006v-1.699999999999818c-1.4210854715202004e-14,-1.8000000000010914,-1.4000000000000057,-3.100000000000364,-3.200000000000003,-3.100000000000364l0,0Z"/>
	
	
</g>
<path d="M11.202935860691458,-2.3781877872719246l-3.725,-3.725c-0.6250000000000008,-0.6250000000000006,-1.875,0.6250000000000001,-1.2500000000000007,1.25l2.5000000000000004,2.5l-2.5000000000000004,2.5c-0.625,0.6250000000000001,0.6250000000000008,1.8750000000000004,1.2500000000000007,1.25l3.725,-3.725ZM7.477935860691458,-2.3781877872719246l-3.7250000000000005,-3.725c-0.6250000000000001,-0.6250000000000006,-1.8749999999999996,0.6250000000000001,-1.2499999999999996,1.25l2.5,2.5l-2.5,2.5c-0.6250000000000001,0.6250000000000001,0.6250000000000001,1.8750000000000004,1.25,1.25l3.725,-3.725Z" id="e1_shape" style="vector-effect: non-scaling-stroke; stroke-width: 1px; stroke: none;" fill="#D72D16" transform="matrix(2.82182 0 0 2.82182 32.9127 40.531)"/></svg>