<svg xmlns="http://www.w3.org/2000/svg" xmlns:xlink="http://www.w3.org/1999/xlink" xmlns:sodipodi="http://sodipodi.sourceforge.net/DTD/sodipodi-0.dtd" version="1.1" id="Layer_1" x="0px" y="0px" viewBox="0 0 100 80" enable-background="new 0 0 100 80" xml:space="preserve"  width="100%" height="100%"><rect id="svgEditorBackground" x="0" y="0" width="100" height="80" style="fill: none; stroke: none;"/>
<g id="g7290" transform="translate(-4554.6967,-3103.8976)">
	
		
	
		
	
	
		
	
		
	
		
	
		<path id="path7235" sodipodi:nodetypes="sccsccccccccccccccccccccccccccccccccccccsccs" fill="#D72D16" d="M4611.703274714997,3114.3134631822436c-6.600000000000364,0,-6.5,5.699999999999818,-6.5,5.699999999999818l0,3c-0.5,0,-0.6999999999998183,0.5,-0.6999999999998183,1.599999999999909c0,1.599999999999909,1,3.199999999999818,1.8999999999996362,4.099999999999909c0.3000000000001819,1.199999999999818,0.8999999999996363,2.300000000000182,1.6000000000003638,3.099999999999909c0,0,-0.1000000000003638,0,-0.1000000000003638,0.09999999999990908l0,0c-2.600000000000364,1.599999999999909,-5.800000000000182,2.599999999999909,-7.800000000000182,3.699999999999818c-0.6000000000003638,0.3000000000001819,-1.199999999999818,0.800000000000182,-1.699999999999818,1.5c-0.3000000000001819,0.40000000000009095,-0.6000000000003638,0.9000000000000911,-0.8999999999996363,1.400000000000091c0,0,0,0,0,0.09999999999990908c0,0.09999999999990908,-0.1000000000003638,0.09999999999990908,-0.1000000000003638,0.19999999999981816c-0.5,1,-0.800000000000182,2.199999999999818,-1,3.300000000000182c0,0,0,0,0,0.09999999999990908c0,0.09999999999990908,0,0.09999999999990908,0,0.19999999999981816c0,0.19999999999981816,-0.1000000000003638,0.40000000000009095,-0.1000000000003638,0.599999999999909c0,0.19999999999981816,-0.1000000000003638,0.5,0,0.599999999999909c0,0,0,0,0,0c-0.1000000000003638,1,1.8999999999996362,1.300000000000182,1.8999999999996362,1.300000000000182c0.6999999999998183,0.19999999999981816,2.100000000000364,0.40000000000009095,3.699999999999818,0.6999999999998183c2.899999999999636,0.5,5.800000000000182,0.599999999999909,8.800000000000182,0.6999999999998183c0.3000000000001819,0,0.6000000000003638,0,0.8999999999996363,0c0,0,0,0,0.1000000000003638,0c0.1000000000003638,0,0.3000000000001819,0,0.5,0c0.3000000000001819,0,0.6000000000003638,0,0.8999999999996363,0c2.899999999999636,-0.09999999999990908,5.899999999999636,-0.3000000000001819,8.800000000000182,-0.6999999999998183c1.6000000000003638,-0.19999999999981816,3,-0.40000000000009095,3.699999999999818,-0.6999999999998183c0,0,1.8999999999996362,-0.3000000000001819,1.8999999999996362,-1.300000000000182c0,0,0,0,0,0c0,-0.19999999999981816,0,-0.5,0,-0.599999999999909c0,-0.3000000000001819,-0.1000000000003638,-0.5,-0.1000000000003638,-0.800000000000182c-0.19999999999981816,-1.199999999999818,-0.6000000000003638,-2.400000000000091,-1.199999999999818,-3.599999999999909c0,0,0,0,0,0c-0.19999999999981816,-0.5,-0.5,-0.9000000000000911,-0.800000000000182,-1.300000000000182c-0.5,-0.6999999999998183,-1.1000000000003638,-1.199999999999818,-1.699999999999818,-1.5c-2,-1.099999999999909,-5.199999999999818,-2.099999999999909,-7.800000000000182,-3.699999999999818l0,0c0,0,-0.1000000000003638,0,-0.1000000000003638,-0.09999999999990908c0.800000000000182,-0.800000000000182,1.300000000000182,-1.900000000000091,1.6000000000003638,-3.099999999999909c0.8999999999996363,-0.800000000000182,1.8999999999996362,-2.5,1.8999999999996362,-4.099999999999909c0,-1,-0.1000000000003638,-1.599999999999909,-0.6999999999998183,-1.599999999999909l0,-3c-0.3999999999978174,-0.29999999999881777,-0.2999999999974535,-5.8999999999991815,-6.899999999997817,-5.8999999999991815l0,0Z" transform="matrix(2.33468 0 0 2.33468 -6161.97 -4164.54)"/>
</g>
</svg>