<?xml version="1.0" encoding="utf-8"?>
<!-- Generator: Adobe Illustrator 18.1.1, SVG Export Plug-In . SVG Version: 6.00 Build 0)  -->
<svg version="1.1" id="Layer_1" xmlns="http://www.w3.org/2000/svg" xmlns:xlink="http://www.w3.org/1999/xlink" x="0px" y="0px"
	 viewBox="0 0 100 80" enable-background="new 0 0 100 80" xml:space="preserve">
<g>
	<g>
		<rect x="5.5" y="0" fill="#D72D16" width="2.8" height="29.5"/>
		<rect x="10.6" y="0.5" fill="#D72D16" width="15.7" height="11.1"/>
	</g>
	<g>
		<path fill="#D72D16" d="M54.4,59.5c-14.5-1.3-30.7-7.2-14.2-25.1C51.3,22.5,6.4,29,6.4,29s26.8-1.7,22.5,5.7S-0.9,63,19.4,67.6
			c15.6,3.5,39.7,9.1,50,11.5c-2.1-2.3-5.2-5.9-8.3-9.9C58.4,65.6,56.1,62.4,54.4,59.5z"/>
		<path fill="#D72D16" d="M74.3,80.2c0,0,21.2-22.5,21.2-32.2S86,30.4,74.3,30.4S53.2,38.2,53.2,48S74.3,80.2,74.3,80.2z"/>
		<path fill="#FFFFFF" d="M65,44.3c0.4-0.8,1-1.4,1.7-2c0.1-0.1,0.2-0.2,0.3-0.3c1.8-1.5,4.4-2.5,7.3-2.5c5.7,0,10.3,3.8,10.3,8.6
			c0,3.4-2.4,6.3-5.8,7.7c-0.1,0.1-0.3,0.1-0.5,0.2c-1.1,0.4-2.2,0.6-3.5,0.6c-0.2,0-0.3,0-0.5,0c-0.2,0-0.3,0-0.5,0
			c-0.5,0-1-0.1-1.5-0.2c-0.3-0.1-0.6-0.1-1-0.2c-0.3-0.1-0.6-0.2-0.9-0.3c-0.3-0.1-0.6-0.2-0.9-0.4c-0.6-0.3-1.1-0.6-1.6-0.9
			c-0.9-0.6-1.6-1.4-2.2-2.2c-0.2-0.3-0.3-0.5-0.5-0.7c-0.6-1.1-1-2.4-1-3.7C64,46.7,64.4,45.4,65,44.3z"/>
		<path fill="#FFFFFF" d="M65.5,52.4c0.6,0.8,1.4,1.5,2.2,2.2c0.5,0.4,1.1,0.6,1.6,0.9c0.3,0.1,0.6,0.3,0.9,0.4
			c0.3,0.1,0.6,0.2,0.9,0.3c0.3,0.1,0.6,0.1,1,0.2c0.5,0.1,1,0.1,1.5,0.2c0.2,0,0.3,0,0.5,0s0.3,0,0.5,0c1.2,0,2.4-0.3,3.5-0.6
			c0.2-0.1,0.3-0.1,0.5-0.2c3.4-1.4,5.8-4.3,5.8-7.7c0-4.7-4.6-8.6-10.3-8.6c-2.8,0-5.4,1-7.3,2.5c-0.1,0.1-0.2,0.2-0.3,0.3
			c-0.6,0.6-1.2,1.3-1.7,2c-0.6,1.1-1,2.4-1,3.7c0,1.3,0.3,2.6,1,3.7C65.2,52,65.3,52.2,65.5,52.4z"/>
	</g>
</g>
</svg>
