<?xml version="1.0" encoding="utf-8"?>
<!-- Generator: Adobe Illustrator 18.1.1, SVG Export Plug-In . SVG Version: 6.00 Build 0)  -->
<svg version="1.1" id="Layer_1" xmlns="http://www.w3.org/2000/svg" xmlns:xlink="http://www.w3.org/1999/xlink" x="0px" y="0px"
	 viewBox="0 0 62.9 48.7" enable-background="new 0 0 62.9 48.7" xml:space="preserve">
<path fill="#D72D16" d="M28.9,24.8c0.5-0.2,1-0.4,1.4-0.7c2.2-1.2,3.5-4.1,3-6.6c-0.4-1.7-1.1-3.6-2-5.3c-0.4-0.7-0.7-1.4-1.1-2
	c-0.4-0.6-0.7-0.8-1.1-0.8c-0.3,0-0.5,0.1-0.6,0.3c-2.3,1.8-4.2,4.1-5.4,7c-0.4,0.8-0.6,1.6-0.9,2.4h3.9c1.6,0,2.9,1.4,2.9,3
	L28.9,24.8L28.9,24.8z M34,11.1c0.9,1.5,2,3.1,3.1,4.2c1.8,1.8,4.9,2.1,7,0.9c1.5-0.8,3-2.2,4.3-3.6c0.5-0.6,1.1-1.2,1.5-1.8
	c0.4-0.6,0.5-1,0.4-1.4c-0.1-0.2-0.2-0.4-0.5-0.6c-2.4-1.7-5.1-2.8-8.2-3.2s-6,0-8.7,1.1c-0.2,0.1-0.4,0.2-0.5,0.4
	c-0.2,0.3-0.2,0.8,0.1,1.4c0.1,0.3,0.2,0.5,0.4,0.8c0.2,0.4,0.4,0.7,0.6,1.1C33.7,10.7,33.8,10.9,34,11.1L34,11.1z M39,41.9
	c0,0.7,0.1,1.1,0.5,1.4c0.2,0.1,0.4,0.2,0.7,0.2c2.9-0.1,5.8-0.8,8.4-2.4c2.7-1.5,4.9-3.6,6.4-6.1c0.1-0.2,0.2-0.4,0.2-0.7
	c0-0.4-0.3-0.8-0.9-1.1c-0.7-0.4-1.4-0.7-2.1-1c-1.7-0.7-3.6-1.4-5.3-1.6c-2.4-0.3-5.2,1.2-6.2,3.5c-0.7,1.6-1.1,3.6-1.5,5.5
	C39.1,40.3,39,41.1,39,41.9L39,41.9z M47.3,19.2c0.7-1.5,1.9-3.3,3.2-4.7c0.1-0.2,0.3-0.3,0.4-0.5c0.2-0.2,0.4-0.4,0.5-0.6
	c0.2-0.2,0.4-0.4,0.6-0.6c0.5-0.5,0.9-0.7,1.3-0.5c0.3,0.1,0.4,0.2,0.5,0.4c1.8,2.3,3.1,5.1,3.7,8.2c0.6,3.1,0.4,6.1-0.4,9
	c-0.1,0.2-0.2,0.4-0.4,0.6c-0.3,0.2-0.8,0.3-1.4,0c-0.7-0.3-1.5-0.6-2.1-1c-1.6-0.8-3.4-2-4.6-3.1C46.9,24.7,46.2,21.5,47.3,19.2
	L47.3,19.2z M36.3,33.5c0.3,1.7,0.3,3.8,0.1,5.7c0,0.8-0.1,1.6-0.3,2.4c-0.1,0.7-0.4,1.1-0.8,1.2c-0.2,0.1-0.5,0.1-0.7,0
	c-2-0.6-4-1.5-5.8-2.8V28.4c0.8,0,1.5,0,2.2,0C33.6,28.8,35.9,31,36.3,33.5L36.3,33.5z M35,22.2c1.3-2.6,4.4-3.7,6.9-2.4
	c2.5,1.3,3.6,4.5,2.3,7.1c-1.3,2.6-4.4,3.7-6.9,2.4C34.7,28,33.7,24.8,35,22.2L35,22.2z M22.5,8.1c8.8-9.7,23.6-10.2,33-1.1
	c9.4,9,9.9,24.3,1.1,33.9c-7.3,8-18.7,9.7-27.7,4.9V41c0.8,0.6,1.7,1,2.6,1.5c9.7,4.6,21.1,0.3,25.6-9.6s0.3-21.7-9.3-26.3
	C38,2,26.6,6.3,22.1,16.2c-0.4,0.9-0.7,1.8-1,2.7h-4.3C17.8,15,19.6,11.3,22.5,8.1L22.5,8.1z M2.4,19.5h23.6c1.3,0,2.3,1.1,2.3,2.4
	v24.2c0,1.3-1,2.4-2.3,2.4h-0.3v-5.8c0-0.2-0.1-0.4-0.4-0.4H25V27.9l0.5-0.3V23L25,22.8v-0.8h-1.4v2.4H12.9l-2.7-0.8H4.9v3.1h5.3
	l2.7-0.8h10.7v16.6h-0.3c-0.2,0-0.4,0.1-0.4,0.4v5.8H2.3C1,48.7,0,47.6,0,46.3V22.1C0,20.6,1.1,19.5,2.4,19.5L2.4,19.5z M16,27.6
	l1.8,1.1l1.8,1.1v2.2v2.2l-1.8,1.1L16,36.2l-1.8-1.1l-1.8-1.1v-2.2v-2.2l1.8-1.1L16,27.6L16,27.6z M16,29.8l-1.8,1.1V33L16,34
	l1.8-1.1v-2.1L16,29.8L16,29.8z M7.3,30.9L9.1,32l1.8,1.1v2.2v2.2l-1.8,1.1l-1.8,1.1l-1.8-1.1l-1.8-1.1v-2.2v-2.2L5.4,32L7.3,30.9
	L7.3,30.9z M7.3,33.1l-1.8,1.1v2.1l1.8,1.1l1.8-1.1v-2.1L7.3,33.1L7.3,33.1z M14.2,37.7l1.8,1.1l1.8,1.1V42v2.2L16,45.3l-1.8,1.1
	l-1.8-1.1l-1.8-1.1V42v-2.2l1.8-1.1L14.2,37.7L14.2,37.7z M14.2,39.9l-1.8,1.1v2.1l1.8,1.1l1.8-1.1v-2.1L14.2,39.9L14.2,39.9z"/>
</svg>
